<svg xmlns="http://www.w3.org/2000/svg" width="600" height="340" viewBox="0 0 600 340">
<path d="M44 252V110C44 67 145 43 300 43S556 67 556 110V252Q556 297 511 297H89Q44 297 44 252Z" fill="#11171c" stroke="#53616d" stroke-width="2"/>
<circle cx="191" cy="156" r="91" fill="#1a242c" stroke="#778792" stroke-width="2"/>
<path d="M131.25 206.14L124.35 211.92" stroke="#dce8ee" stroke-width="2"/>
<path d="M118.78 198.90L116.20 200.44" stroke="#dce8ee" stroke-width="1"/>
<path d="M112.81 186.69L110.01 187.78" stroke="#dce8ee" stroke-width="1"/>
<path d="M108.88 173.67L105.95 174.30" stroke="#dce8ee" stroke-width="1"/>
<path d="M113.10 159.89L104.11 160.34" stroke="#dce8ee" stroke-width="2"/>
<path d="M107.53 146.59L104.55 146.26" stroke="#dce8ee" stroke-width="1"/>
<path d="M110.14 133.25L107.25 132.44" stroke="#dce8ee" stroke-width="1"/>
<path d="M114.87 120.50L112.15 119.23" stroke="#dce8ee" stroke-width="1"/>
<path d="M126.55 112.06L119.12 106.99" stroke="#dce8ee" stroke-width="2"/>
<path d="M130.14 98.10L127.97 96.03" stroke="#dce8ee" stroke-width="1"/>
<path d="M140.28 89.04L138.47 86.65" stroke="#dce8ee" stroke-width="1"/>
<path d="M151.75 81.73L150.35 79.08" stroke="#dce8ee" stroke-width="1"/>
<path d="M166.16 82.06L163.29 73.53" stroke="#dce8ee" stroke-width="2"/>
<path d="M177.45 73.10L176.96 70.14" stroke="#dce8ee" stroke-width="1"/>
<path d="M191.00 72.00L191.00 69.00" stroke="#dce8ee" stroke-width="1"/>
<path d="M204.55 73.10L205.04 70.14" stroke="#dce8ee" stroke-width="1"/>
<path d="M215.84 82.06L218.71 73.53" stroke="#dce8ee" stroke-width="2"/>
<path d="M230.25 81.73L231.65 79.08" stroke="#dce8ee" stroke-width="1"/>
<path d="M241.72 89.04L243.53 86.65" stroke="#dce8ee" stroke-width="1"/>
<path d="M251.86 98.10L254.03 96.03" stroke="#dce8ee" stroke-width="1"/>
<path d="M255.45 112.06L262.88 106.99" stroke="#dce8ee" stroke-width="2"/>
<path d="M267.13 120.50L269.85 119.23" stroke="#dce8ee" stroke-width="1"/>
<path d="M271.86 133.25L274.75 132.44" stroke="#dce8ee" stroke-width="1"/>
<path d="M274.47 146.59L277.45 146.26" stroke="#dce8ee" stroke-width="1"/>
<path d="M268.90 159.89L277.89 160.34" stroke="#dce8ee" stroke-width="2"/>
<path d="M273.12 173.67L276.05 174.30" stroke="#dce8ee" stroke-width="1"/>
<path d="M269.19 186.69L271.99 187.78" stroke="#dce8ee" stroke-width="1"/>
<path d="M263.22 198.90L265.80 200.44" stroke="#dce8ee" stroke-width="1"/>
<path d="M250.75 206.14L257.65 211.92" stroke="#dce8ee" stroke-width="2"/>
<text x="141.97" y="201.14" fill="#dce8ee" font-size="12" text-anchor="middle" font-family="sans-serif">0</text>
<text x="127.08" y="163.19" fill="#dce8ee" font-size="12" text-anchor="middle" font-family="sans-serif">20</text>
<text x="138.12" y="123.95" fill="#dce8ee" font-size="12" text-anchor="middle" font-family="sans-serif">40</text>
<text x="170.62" y="99.33" fill="#dce8ee" font-size="12" text-anchor="middle" font-family="sans-serif">60</text>
<text x="211.38" y="99.33" fill="#dce8ee" font-size="12" text-anchor="middle" font-family="sans-serif">80</text>
<text x="243.88" y="123.95" fill="#dce8ee" font-size="12" text-anchor="middle" font-family="sans-serif">100</text>
<text x="254.92" y="163.19" fill="#dce8ee" font-size="12" text-anchor="middle" font-family="sans-serif">120</text>
<text x="240.03" y="201.14" fill="#dce8ee" font-size="12" text-anchor="middle" font-family="sans-serif">140</text>
<text x="191" y="181" fill="#91a4b1" font-size="11" text-anchor="middle" font-family="sans-serif">km/h</text>
<path d="M191 156L140.44 198.42" stroke="#ffc84b" stroke-width="3" stroke-linecap="round"/><circle cx="191" cy="156" r="6" fill="#ffc84b"/>
<circle cx="423" cy="154" r="65" fill="#1a242c" stroke="#778792" stroke-width="2"/>
<path d="M383.17 187.42L376.27 193.21" stroke="#dce8ee" stroke-width="2"/>
<path d="M373.14 183.62L370.56 185.16" stroke="#dce8ee" stroke-width="1"/>
<path d="M369.01 175.19L366.22 176.29" stroke="#dce8ee" stroke-width="1"/>
<path d="M366.30 166.20L363.36 166.83" stroke="#dce8ee" stroke-width="1"/>
<path d="M371.06 156.59L362.08 157.04" stroke="#dce8ee" stroke-width="2"/>
<path d="M365.36 147.51L362.38 147.17" stroke="#dce8ee" stroke-width="1"/>
<path d="M367.17 138.29L364.28 137.48" stroke="#dce8ee" stroke-width="1"/>
<path d="M370.43 129.49L367.72 128.22" stroke="#dce8ee" stroke-width="1"/>
<path d="M380.04 124.71L372.60 119.64" stroke="#dce8ee" stroke-width="2"/>
<path d="M380.98 114.02L378.80 111.96" stroke="#dce8ee" stroke-width="1"/>
<path d="M387.98 107.77L386.17 105.37" stroke="#dce8ee" stroke-width="1"/>
<path d="M395.90 102.72L394.50 100.07" stroke="#dce8ee" stroke-width="1"/>
<path d="M406.44 104.71L403.57 96.18" stroke="#dce8ee" stroke-width="2"/>
<path d="M413.64 96.76L413.16 93.80" stroke="#dce8ee" stroke-width="1"/>
<path d="M423.00 96.00L423.00 93.00" stroke="#dce8ee" stroke-width="1"/>
<path d="M432.36 96.76L432.84 93.80" stroke="#dce8ee" stroke-width="1"/>
<path d="M439.56 104.71L442.43 96.18" stroke="#dce8ee" stroke-width="2"/>
<path d="M450.10 102.72L451.50 100.07" stroke="#dce8ee" stroke-width="1"/>
<path d="M458.02 107.77L459.83 105.37" stroke="#dce8ee" stroke-width="1"/>
<path d="M465.02 114.02L467.20 111.96" stroke="#dce8ee" stroke-width="1"/>
<path d="M465.96 124.71L473.40 119.64" stroke="#dce8ee" stroke-width="2"/>
<path d="M475.57 129.49L478.28 128.22" stroke="#dce8ee" stroke-width="1"/>
<path d="M478.83 138.29L481.72 137.48" stroke="#dce8ee" stroke-width="1"/>
<path d="M480.64 147.51L483.62 147.17" stroke="#dce8ee" stroke-width="1"/>
<path d="M474.94 156.59L483.92 157.04" stroke="#dce8ee" stroke-width="2"/>
<path d="M479.70 166.20L482.64 166.83" stroke="#dce8ee" stroke-width="1"/>
<path d="M476.99 175.19L479.78 176.29" stroke="#dce8ee" stroke-width="1"/>
<path d="M472.86 183.62L475.44 185.16" stroke="#dce8ee" stroke-width="1"/>
<path d="M462.83 187.42L469.73 193.21" stroke="#dce8ee" stroke-width="2"/>
<text x="393.89" y="182.43" fill="#dce8ee" font-size="12" text-anchor="middle" font-family="sans-serif">0</text>
<text x="385.05" y="159.89" fill="#dce8ee" font-size="12" text-anchor="middle" font-family="sans-serif">1</text>
<text x="391.60" y="136.59" fill="#dce8ee" font-size="12" text-anchor="middle" font-family="sans-serif">2</text>
<text x="410.90" y="121.98" fill="#dce8ee" font-size="12" text-anchor="middle" font-family="sans-serif">3</text>
<text x="435.10" y="121.98" fill="#dce8ee" font-size="12" text-anchor="middle" font-family="sans-serif">4</text>
<text x="454.40" y="136.59" fill="#dce8ee" font-size="12" text-anchor="middle" font-family="sans-serif">5</text>
<text x="460.95" y="159.89" fill="#dce8ee" font-size="12" text-anchor="middle" font-family="sans-serif">6</text>
<text x="452.11" y="182.43" fill="#dce8ee" font-size="12" text-anchor="middle" font-family="sans-serif">7</text>
<text x="423" y="179" fill="#91a4b1" font-size="11" text-anchor="middle" font-family="sans-serif">×1000</text>
<path d="M423 154L392.36 179.71" stroke="#ffc84b" stroke-width="3" stroke-linecap="round"/><circle cx="423" cy="154" r="6" fill="#ffc84b"/>
<rect x="128" y="260" width="160" height="24" rx="4" fill="#abc5b6"/>
<text x="137" y="277" fill="#142b24" font-size="11" font-family="sans-serif">ODO</text><text x="280" y="278" fill="#142b24" font-size="18" text-anchor="end" font-family="monospace">123450 km</text>
<text x="342" y="264" fill="#cbd7df" font-size="13" font-family="sans-serif">E</text><text x="494" y="264" fill="#cbd7df" font-size="13" font-family="sans-serif">F</text>
<path d="M362 260H486" stroke="#53616d" stroke-width="8"/><path d="M362 260H444" stroke="#c1d4c8" stroke-width="8"/>
<text x="424" y="283" fill="#91a4b1" font-size="10" text-anchor="middle" font-family="sans-serif">FUEL</text>
</svg>