<svg xmlns="http://www.w3.org/2000/svg" width="600" height="340" viewBox="0 0 600 340"><path d="M72 252 V167 C72 57 145 25 238 25 C330 25 366 65 398 112 L491 132 Q536 142 536 192 V270 Q536 309 494 309 H114 Q72 309 72 252 Z" fill="#121a23" stroke="#66737e" stroke-width="10"/><circle cx="238" cy="158" r="114" fill="#19232d" stroke="#8895a1" stroke-width="5"/><path d="M146.8 186.5 A95.75999999999999 95.75999999999999 0 1 1 329.2 186.5" fill="none" stroke="#d6e0df" stroke-width="6" stroke-dasharray="3 17"/><text x="238" y="140" fill="#d6e0df" text-anchor="middle" font-size="18">km/h</text><path d="M238 158 l-74.10000000000001 34.199999999999996" stroke="#f2866a" stroke-width="6"/><circle cx="238" cy="158" r="9" fill="#6e8391"/><rect x="176" y="251" width="124" height="30" rx="4" fill="#ced9ab"/><text x="184" y="272" fill="#24352e" font-family="monospace" font-size="18">ODO 123450</text><text x="406" y="235" fill="#d6e0df" font-size="17">E ▰▰▰▰ F</text></svg>