<svg xmlns="http://www.w3.org/2000/svg" width="600" height="340" viewBox="0 0 600 340" fill="none" stroke="white" stroke-linecap="round" stroke-linejoin="round"><path d="M27 263 V150 Q27 62 145 39 Q300 13 455 39 Q573 62 573 150 V263 Q573 306 530 306 H70 Q27 306 27 263 Z" stroke-opacity=".82" stroke-width="2.6"/><circle cx="174" cy="164" r="116" stroke-opacity=".61" stroke-width="2.2"/><circle cx="438" cy="164" r="116" stroke-opacity=".61" stroke-width="2.2"/><circle cx="307" cy="252" r="40" stroke-opacity=".62" stroke-width="2"/><rect x="400" y="225" width="100" height="27" rx="4" stroke-opacity=".68" stroke-width="2"/><path d="M78 208 A106 106 0 1 1 270 208 M342 208 A106 106 0 1 1 534 208" stroke-opacity=".33" stroke-width="1.4"/><g fill="white" stroke="none" fill-opacity=".6" font-family="Arial, sans-serif"><text x="174" y="137" text-anchor="middle" font-size="14">x1000r/min</text><text x="438" y="137" text-anchor="middle" font-size="17">km/h</text><text x="278" y="269" text-anchor="middle" font-size="13">E</text><text x="336" y="269" text-anchor="middle" font-size="13">F</text></g><path d="M104 234L95.5 242.5 M83.6 204.3L72.6 209.1 M75.1 169.2L63.2 169.8 M79.8 133.4L68.4 129.7 M97.1 101.7L87.7 94.1 M124.5 78.3L118.5 67.9 M158.5 66.2L156.6 54.4 M194.6 67.2L197.1 55.4 M227.9 81L234.5 70.9 M254.1 105.8L263.8 98.8 M368 234L359.5 242.5 M340.5 181.2L328.7 183.3 M348.3 122.2L337.4 117.1 M388.5 78.3L382.5 67.9 M446.6 65.4L447.7 53.4 M501.6 88.2L509.3 79 M533.6 138.4L545.2 135.3 M531 197.9L542.3 202" stroke-opacity=".6" stroke-width="2.1"/><path d="M92.5 231.8L87.9 235.6 M84.8 221.3L79.8 224.6 M78.5 210.1L73.1 212.7 M73.6 198.1L67.9 200 M70.2 185.6L64.3 186.8 M68.4 172.8L62.4 173.3 M68.1 159.8L62.1 159.6 M69.4 147L63.5 146 M72.2 134.3L66.5 132.7 M76.6 122.2L71.1 119.8 M82.4 110.6L77.3 107.6 M89.6 99.8L84.8 96.2 M98.1 90L93.8 85.8 M107.7 81.3L103.9 76.7 M118.2 73.9L115.1 68.8 M129.6 67.7L127.1 62.3 M141.7 63L139.9 57.3 M154.2 59.9L153.1 54 M167.1 58.2L166.7 52.2 M180 58.2L180.3 52.2 M192.9 59.7L193.9 53.8 M205.4 62.8L207.2 57 M217.5 67.4L220 61.9 M229 73.4L232.1 68.2 M239.6 80.8L243.3 76 M249.3 89.4L253.5 85.2 M257.8 99.1L262.6 95.4 M357.5 233L353 236.9 M348 220L342.9 223.1 M340.5 205.6L335 208 M335.3 190.3L329.5 191.8 M332.5 174.4L326.5 175 M332.2 158.2L326.2 157.9 M334.3 142.2L328.4 141 M338.8 126.7L333.2 124.5 M345.6 112L340.4 109.1 M354.6 98.6L349.9 94.9 M365.5 86.6L361.4 82.3 M378.2 76.5L374.8 71.6 M392.2 68.4L389.6 63 M407.2 62.6L405.5 56.8 M423 59.1L422.2 53.1 M439.2 58L439.2 52 M455.3 59.4L456.2 53.5 M471 63.3L472.8 57.6 M485.9 69.4L488.6 64.1 M499.7 77.8L503.2 73 M512.1 88.2L516.3 83.9 M522.8 100.4L527.6 96.8 M531.5 114L536.8 111.2 M538 128.8L543.7 126.8 M542.2 144.5L548.1 143.3 M543.9 160.5L549.9 160.3 M543.2 176.7L549.2 177.4 M540.1 192.6L545.9 194.2" stroke-opacity=".41" stroke-width="1.3"/><g fill="white" stroke="none" fill-opacity=".6" font-family="Arial, sans-serif" font-weight="600"><text x="113.9" y="229.1" text-anchor="middle" font-size="15">0</text><text x="96.3" y="203.6" text-anchor="middle" font-size="15">1</text><text x="89.1" y="173.4" text-anchor="middle" font-size="15">2</text><text x="93.2" y="142.7" text-anchor="middle" font-size="15">3</text><text x="107.9" y="115.5" text-anchor="middle" font-size="15">4</text><text x="131.5" y="95.4" text-anchor="middle" font-size="15">5</text><text x="160.7" y="85" text-anchor="middle" font-size="15">6</text><text x="191.7" y="85.9" text-anchor="middle" font-size="15">7</text><text x="220.3" y="97.7" text-anchor="middle" font-size="15">8</text><text x="242.8" y="119" text-anchor="middle" font-size="15">9</text><text x="377.9" y="229.1" text-anchor="middle" font-size="15">0</text><text x="354.3" y="183.8" text-anchor="middle" font-size="15">20</text><text x="361" y="133.1" text-anchor="middle" font-size="15">40</text><text x="395.5" y="95.4" text-anchor="middle" font-size="15">60</text><text x="445.4" y="84.3" text-anchor="middle" font-size="15">80</text><text x="492.6" y="103.9" text-anchor="middle" font-size="15">100</text><text x="520.1" y="147" text-anchor="middle" font-size="15">120</text><text x="517.9" y="198.1" text-anchor="middle" font-size="15">140</text></g><path d="M34 264 V150 Q34 68 147 46 Q300 21 453 46 Q566 68 566 150 V264" stroke-opacity=".28" stroke-width="1.4"/><path d="M278 233 Q307 208 336 233" stroke-opacity=".4" stroke-width="1.3"/><rect x="290" y="64" width="64" height="14" rx="6" stroke-opacity=".32" stroke-width="1.2"/><rect x="304" y="88" width="48" height="14" rx="6" stroke-opacity=".32" stroke-width="1.2"/><g fill="white" stroke="none" fill-opacity=".46" font-family="Arial, sans-serif" font-size="13"><text x="249" y="129">P</text><text x="249" y="151">R</text><text x="249" y="173">N</text><text x="249" y="195">D</text><text x="249" y="217">2</text></g></svg>