<svg xmlns="http://www.w3.org/2000/svg" width="600" height="340" viewBox="0 0 600 340" fill="none" stroke="white" stroke-linecap="round" stroke-linejoin="round"><path d="M27 263 V150 Q27 62 145 39 Q300 13 455 39 Q573 62 573 150 V263 Q573 306 530 306 H70 Q27 306 27 263 Z" stroke-opacity=".82" stroke-width="2.6"/><circle cx="174" cy="164" r="116" stroke-opacity=".61" stroke-width="2.2"/><circle cx="438" cy="164" r="116" stroke-opacity=".61" stroke-width="2.2"/><circle cx="307" cy="252" r="40" stroke-opacity=".62" stroke-width="2"/><rect x="400" y="225" width="100" height="27" rx="4" stroke-opacity=".68" stroke-width="2"/><path d="M78 208 A106 106 0 1 1 270 208 M342 208 A106 106 0 1 1 534 208" stroke-opacity=".33" stroke-width="1.4"/><g fill="white" stroke="none" fill-opacity=".6" font-family="Arial, sans-serif"><text x="174" y="137" text-anchor="middle" font-size="14">x1000r/min</text><text x="438" y="137" text-anchor="middle" font-size="17">km/h</text><text x="278" y="269" text-anchor="middle" font-size="13">E</text><text x="336" y="269" text-anchor="middle" font-size="13">F</text></g><path d="M104 234L95.5 242.5 M83.6 204.3L72.6 209.1 M75.1 169.2L63.2 169.8 M79.8 133.4L68.4 129.7 M97.1 101.7L87.7 94.1 M124.5 78.3L118.5 67.9 M158.5 66.2L156.6 54.4 M194.6 67.2L197.1 55.4 M227.9 81L234.5 70.9 M254.1 105.8L263.8 98.8 M368 234L359.5 242.5 M340.5 181.2L328.7 183.3 M348.3 122.2L337.4 117.1 M388.5 78.3L382.5 67.9 M446.6 65.4L447.7 53.4 M501.6 88.2L509.3 79 M533.6 138.4L545.2 135.3 M531 197.9L542.3 202" stroke-opacity=".6" stroke-width="2.1"/><g fill="white" stroke="none" fill-opacity=".6" font-family="Arial, sans-serif" font-weight="600"><text x="113.9" y="229.1" text-anchor="middle" font-size="15">0</text><text x="96.3" y="203.6" text-anchor="middle" font-size="15">1</text><text x="89.1" y="173.4" text-anchor="middle" font-size="15">2</text><text x="93.2" y="142.7" text-anchor="middle" font-size="15">3</text><text x="107.9" y="115.5" text-anchor="middle" font-size="15">4</text><text x="131.5" y="95.4" text-anchor="middle" font-size="15">5</text><text x="160.7" y="85" text-anchor="middle" font-size="15">6</text><text x="191.7" y="85.9" text-anchor="middle" font-size="15">7</text><text x="220.3" y="97.7" text-anchor="middle" font-size="15">8</text><text x="242.8" y="119" text-anchor="middle" font-size="15">9</text><text x="377.9" y="229.1" text-anchor="middle" font-size="15">0</text><text x="354.3" y="183.8" text-anchor="middle" font-size="15">20</text><text x="361" y="133.1" text-anchor="middle" font-size="15">40</text><text x="395.5" y="95.4" text-anchor="middle" font-size="15">60</text><text x="445.4" y="84.3" text-anchor="middle" font-size="15">80</text><text x="492.6" y="103.9" text-anchor="middle" font-size="15">100</text><text x="520.1" y="147" text-anchor="middle" font-size="15">120</text><text x="517.9" y="198.1" text-anchor="middle" font-size="15">140</text></g></svg>